<svg width="128" height="128" viewBox="0 0 128 128" fill="none" xmlns="http://www.w3.org/2000/svg">
<g clip-path="url(#clip0_999_186)">
<rect width="128" height="128" fill="white"/>
<path d="M97.8333 15H29.1667C19.6872 15 12 22.6855 12 32.1649V100.833C12 110.313 19.6872 118 29.1667 118H97.8333C107.313 118 115 110.313 115 100.833V32.1649C115 22.6855 107.313 15 97.8333 15ZM106.417 89.96C106.417 91.8387 106.047 93.699 105.328 95.4348C104.609 97.1705 103.556 98.7477 102.227 100.076C100.899 101.405 99.322 102.459 97.5864 103.178C95.8507 103.897 93.9904 104.267 92.1117 104.267H34.8883C33.0096 104.267 31.1493 103.897 29.4136 103.178C27.678 102.459 26.1009 101.405 24.7726 100.076C23.4442 98.7477 22.3905 97.1705 21.6717 95.4348C20.953 93.699 20.5831 91.8387 20.5833 89.96V32.7383C20.5831 30.8597 20.953 28.9994 21.6718 27.2638C22.3906 25.5281 23.4443 23.951 24.7727 22.6227C26.101 21.2943 27.6781 20.2406 29.4138 19.5218C31.1494 18.803 33.0097 18.4331 34.8883 18.4333H92.1117C93.9903 18.4331 95.8506 18.803 97.5862 19.5218C99.3219 20.2406 100.899 21.2943 102.227 22.6227C103.556 23.951 104.609 25.5281 105.328 27.2638C106.047 28.9994 106.417 30.8597 106.417 32.7383V89.96Z" fill="black"/>
<path d="M93.2033 54.0004L96 43.4993H85.5589L88.3557 33H77.9197L75.1196 43.4993H61.2011L63.9978 33H53.5601L50.76 43.4993H40.3224L37.5257 53.9987H47.9633L44.2343 67.9996H33.7933L31 78.5007H41.4411L38.6409 89H49.082L51.8787 78.5007H65.8007L63.0005 89H73.4416L76.2383 78.5007H86.6793L89.4761 68.0013H79.0384L82.7674 54.0004H93.2033ZM68.5957 68.0013H54.6771L58.4061 54.0004H72.3246L68.5957 68.0013Z" fill="black"/>
<path d="M122.5 107.521C122.488 108.38 122.139 109.199 121.529 109.803L103.803 127.553L103.797 127.558L103.792 127.562C103.335 128.011 102.755 128.317 102.126 128.439C101.497 128.562 100.845 128.497 100.253 128.253C99.6604 128.009 99.1529 127.595 98.793 127.065C98.4331 126.535 98.2365 125.911 98.2275 125.271L98.2275 120.537L83.7725 120.537C82.904 120.537 82.0716 120.191 81.458 119.577C80.8446 118.963 80.5001 118.131 80.5 117.263L80.5 97.7373C80.5001 96.8695 80.8446 96.0371 81.458 95.4228C82.0716 94.8085 82.904 94.463 83.7725 94.4629L98.2275 94.4629L98.2275 89.7295C98.2365 89.089 98.4331 88.4646 98.793 87.9346C99.1529 87.4045 99.6604 86.9914 100.253 86.7471C100.845 86.5028 101.497 86.4378 102.126 86.5605C102.755 86.6833 103.335 86.9885 103.792 87.4375L103.797 87.4424L103.803 87.4473L121.529 105.197C122.139 105.801 122.488 106.62 122.5 107.479L122.5 107.521Z" fill="black" stroke="white" stroke-width="3"/>
<path d="M3.5 21.4785C3.51225 20.6203 3.86087 19.8011 4.4707 19.1973L22.1973 1.44726L22.2031 1.44238L22.208 1.4375C22.6653 0.988537 23.2449 0.68331 23.874 0.560546C24.5031 0.43783 25.1545 0.50277 25.7471 0.747069C26.3396 0.991397 26.8471 1.40451 27.207 1.93457C27.5669 2.46463 27.7635 3.08897 27.7725 3.72949L27.7725 8.46289L42.2275 8.46289C43.096 8.46296 43.9284 8.80852 44.542 9.42285C45.1554 10.0371 45.4999 10.8695 45.5 11.7373L45.5 31.2627C45.4999 32.1305 45.1554 32.9629 44.542 33.5771C43.9284 34.1915 43.096 34.537 42.2275 34.5371L27.7725 34.5371L27.7725 39.2705C27.7635 39.911 27.5669 40.5354 27.207 41.0654C26.8471 41.5955 26.3396 42.0086 25.7471 42.2529C25.1545 42.4972 24.5031 42.5622 23.874 42.4395C23.2449 42.3167 22.6653 42.0115 22.208 41.5625L22.2031 41.5576L22.1973 41.5527L4.4707 23.8027C3.86087 23.1989 3.51225 22.3797 3.5 21.5215L3.5 21.4785Z" fill="black" stroke="white" stroke-width="3"/>
</g>
<defs>
<clipPath id="clip0_999_186">
<rect width="128" height="128" fill="white"/>
</clipPath>
</defs>
</svg>
